<svg xmlns="http://www.w3.org/2000/svg" viewBox="0 0 32 36">
  <!-- Dark Strawberry favicon — flat fills, reads at 16px -->
  <!-- Leaves -->
  <path d="M16,10 C14,6 10,5 9,7 C10,9 13,10 16,10 Z" fill="#3a8a30"/>
  <path d="M16,10 C18,6 22,5 23,7 C22,9 19,10 16,10 Z" fill="#4aa040"/>
  <path d="M16,10 C16,6 16,4 16,3 C15,5 14,8 16,10 Z" fill="#2d7025"/>
  <!-- Berry body -->
  <path d="M16,10 C8,10 5,16 5,22 C5,28 9,34 16,34 C23,34 27,28 27,22 C27,16 24,10 16,10 Z" fill="#e8614a"/>
  <!-- Seeds -->
  <circle cx="13" cy="19" r="1.2" fill="rgba(255,255,255,0.35)"/>
  <circle cx="19" cy="18" r="1.2" fill="rgba(255,255,255,0.35)"/>
  <circle cx="12" cy="25" r="1.2" fill="rgba(255,255,255,0.35)"/>
  <circle cx="20" cy="25" r="1.2" fill="rgba(255,255,255,0.35)"/>
  <circle cx="16" cy="29" r="1.2" fill="rgba(255,255,255,0.30)"/>
</svg>
